<?xml version="1.0" encoding="utf-8"?>
<!-- Generator: Adobe Illustrator 23.0.6, SVG Export Plug-In . SVG Version: 6.00 Build 0)  -->
<svg version="1.1" id="Layer_1" xmlns="http://www.w3.org/2000/svg" xmlns:xlink="http://www.w3.org/1999/xlink" x="0px" y="0px"
	 viewBox="0 0 1838.29 593.25" style="enable-background:new 0 0 1838.29 593.25;" xml:space="preserve">
<g>
	<defs>
		<path id="SVGID_1_" d="M245.34,239.8v-3.72c27.61-13.27,50.97-35.57,50.97-78.58c0-53.62-35.05-92.91-110.44-92.91H23.94v371.65
			h160.34c76.98,0,123.71-37.7,123.71-104.06C307.99,274.31,270.83,247.76,245.34,239.8z M104.11,129.37h70.08
			c23.89,0,40.35,16.45,40.35,41.94c0,24.95-14.34,41.41-41.94,41.41h-68.49V129.37z M176.32,371.47h-72.21v-93.97h72.21
			c30.79,0,47.25,21.77,47.25,47.79C223.57,350.77,208.71,371.47,176.32,371.47z M527.23,348.11c-6.37,20.18-24.95,30.8-52.03,30.8
			c-37.16,0-58.4-22.83-61.59-53.62H600.5c1.07-7.44,1.6-14.87,1.6-21.24c-0.53-98.75-63.72-138.58-130.08-138.58
			c-74.33,0-136.98,52.56-136.98,140.7c0,82.3,58.94,135.39,140.17,135.39c71.67,0,117.87-37.16,127.95-93.44H527.23z
			 M472.02,228.12c30.26,0,51.5,18.58,54.16,44.6h-111.5C419.99,247.76,440.17,228.12,472.02,228.12z M687.54,547.74
			c83.35,0,105.65-58.4,114.15-83.35l104.6-293.6h-81.77L762.4,355.54h-4.77l-66.9-184.76h-82.29l101.41,265.46h24.42l-6.37,16.46
			c-10.62,25.48-34.51,33.98-59.46,33.98c-7.44,0-16.99-1.07-27.08-3.19l0.53,57.87C655.15,545.09,668.96,547.74,687.54,547.74z
			 M1221.84,436.24h79.64V296.61c0-43.01,26.55-62.12,56.28-62.12c30.79,0,54.16,20.18,54.16,60.53v141.22h79.64V278.56
			c0-70.08-39.82-113.09-106.72-113.09c-38.75,0-62.12,15.4-78.57,36.1h-4.78l-6.91-30.79h-72.73V436.24z M1724.06,59.29v131.14
			c-15.39-13.8-40.88-24.96-72.73-24.96c-69.02,0-125.83,49.91-125.83,137.52c0,85.48,55.21,138.57,125.83,138.57
			c38.75,0,63.18-16.99,75.92-32.91h4.77l6.91,27.61h64.77V59.29H1724.06z M1664.6,372.53c-35.57,0-59.46-27.61-59.46-69.55
			c0-40.88,23.89-68.49,59.46-68.49c36.1,0,59.46,27.61,59.46,68.49C1724.06,344.39,1700.71,372.53,1664.6,372.53z M1162.68,260.03
			l-0.07-2.3l1.28,1.91c0.68,1.01,1.33,2.04,1.98,3.05l0.1,0.16v0.19c0.21,3.05,0.65,6,1.08,8.85l0.05,0.37
			c0.17,1.11,0.49,2.16,0.92,3.05c0.76,1.55,1.66,2.57,2.8,3.22c1.13,0.63,2.36,1.02,3.89,1.22l0.36,0.05l0.15,0.33
			c0.42,0.92,0.82,1.85,1.2,2.77l0.43,1.01l-1.09-0.1c-0.8-0.07-1.58-0.16-2.38-0.28c-3.45-0.54-5.8-1.86-7.41-4.17
			c-1.18-1.7-1.87-3.3-2.12-4.9v-0.01c-0.43-2.89-0.72-5.55-0.89-8.12C1162.82,264.25,1162.74,262.15,1162.68,260.03z
			 M1187.28,336.82v1.33l-1.06-0.81c-0.92-0.7-1.82-1.42-2.7-2.18c-1.13-0.98-2.23-2.17-3.38-3.63c-0.86-1.09-1.45-2.18-1.77-3.22
			c-0.81-2.65-0.75-5.51,0.17-8.74c0.77-2.7,2.09-5.18,3.36-7.57l0.75-1.42c0.23-0.43,0.46-0.84,0.7-1.26l0.87-1.55l0.35,1.75
			c0.3,1.48,0.58,2.96,0.83,4.44l0.03,0.18l-0.07,0.17c-1.57,3.92-2.22,7.26-2.05,10.49c0.12,2.23,0.91,4.17,2.34,5.78l1.56,1.74
			l0.01,0.24C1187.26,333.98,1187.28,335.4,1187.28,336.82z M1098.98,465.84l0.32,0.64l-2.93,1.13l-0.25-0.59
			c-0.24-0.55-0.45-1.11-0.66-1.67c-0.21-0.56-0.43-1.11-0.66-1.66c-0.24-0.55-0.46-1.11-0.68-1.67c-0.59-1.49-1.21-3.03-2.02-4.39
			c-0.51-0.85-0.98-1.29-1.44-1.35c-0.6-0.13-1.34,0.53-1.84,1.04c-1.3,1.34-2.2,2.98-2.97,4.55c-0.53,1.06-1.08,2.11-1.64,3.15
			c-0.5,0.95-0.99,1.89-1.47,2.83c-0.45,0.9-0.9,1.8-1.34,2.7l-0.92,1.86l-0.3,0.07c-1.09,0.26-2.21,0.51-3.32,0.74l-1.51,0.32
			l0.82-1.31c0.64-1.03,1.26-2.07,1.88-3.12l0.81-1.35c0.42-0.71,0.84-1.42,1.22-2.16c0.39-0.78,0.77-1.57,1.13-2.36
			c0.4-0.84,0.8-1.69,1.22-2.52c0.43-0.84,0.89-1.67,1.35-2.51c0.47-0.86,0.94-1.71,1.38-2.58c0.83-1.64,1.91-3.48,3.65-4.82
			c0.45-0.34,1.64-1.24,2.84-0.41c1.18,0.82,2.05,1.9,2.52,3.14c0.5,1.32,1,2.64,1.5,3.96c0.75,2,1.51,4,2.29,5.99
			C1098.27,464.31,1098.61,465.08,1098.98,465.84z M1182.27,341.72c-1.16-0.98-2.39-1.89-3.58-2.78c-1.15-0.85-2.33-1.73-3.43-2.65
			c-1-0.84-1.91-1.88-2.78-2.89l-0.71-0.82c-1.4-1.58-2.14-3.34-2.21-5.24c-0.13-4.17,1.04-7.65,3.56-10.61l0.3-0.33
			c0.27-0.3,0.53-0.59,0.77-0.92c0.62-0.84,1.22-1.69,1.84-2.54l0.82-1.15c0.19-0.26,0.38-0.52,0.57-0.78
			c0.43-0.57,0.86-1.14,1.23-1.75c0.51-0.82,1-1.66,1.49-2.49c0.53-0.91,1.07-1.82,1.64-2.71c0.35-0.57,0.69-1.15,0.99-1.75
			l0.11-0.23l-0.06-0.24c-0.43-1.64-0.89-3.27-1.37-4.9l-0.17-0.57l0.08,0.1l-0.5-1.48l-0.39-1.32l-0.01,0.11l-0.23-0.68
			c-0.46-1.4-0.95-2.8-1.46-4.19l-0.12-0.32l-0.32-0.09c-1.2-0.35-2.42-0.65-3.64-0.95c-1.25-0.31-2.5-0.62-3.74-0.98
			c-2.18-0.63-4.1-1.27-5.58-2.67l-0.45-0.43c-0.61-0.57-1.24-1.17-1.8-1.78c-0.58-0.66-1.02-1.26-1.32-1.84
			c-0.95-1.82-1.5-3.9-1.64-6.16c-0.15-2.29-0.28-4.57-0.41-6.87c-0.15-2.67-0.31-5.35-0.49-8.03c-0.04-0.57-0.07-1.15-0.1-1.72
			c-0.08-1.47-0.16-2.98-0.4-4.46l-0.03-0.17l-0.1-0.13c-1.84-2.42-3.91-4.93-6.14-7.46l-0.17-0.2l-0.27-0.02
			c-0.92-0.09-1.91-0.01-2.87,0.21c-2.25,0.5-4.5,1.04-6.75,1.58l-2.78,0.66c-3.23,0.79-5.97,0.12-8.35-1.99
			c-1.01-0.91-1.94-1.6-2.85-2.13c-1.35-0.79-2.46-1.28-3.5-1.56c-3.72-0.99-6.95,0.49-9.68,1.95c-1.49,0.79-2.86,1.76-4.45,2.98
			c-2.33,1.78-4.21,3.32-5.93,4.84c-0.88,0.78-1.67,1.64-2.43,2.49c-0.36,0.39-0.72,0.79-1.09,1.17l-0.4,0.42l0.1,0.12l-1.09,0.86
			c-1.22,0.97-2.45,1.93-3.68,2.89c-1.43,1.09-3.05,1.64-4.95,1.65c-0.03,0-0.05,0-0.08,0c-2.47,0-4.82-0.99-7.39-3.11
			c-1.51-1.26-2.84-2.84-4.12-4.37l-0.3-0.36c-0.77-0.91-1.47-1.9-2.16-2.87c-0.4-0.55-0.79-1.11-1.2-1.66
			c-0.3-0.39-0.61-0.78-0.93-1.16c-0.39-0.47-0.79-0.95-1.14-1.44c-1.95-2.74-4.32-4.17-7.28-4.38c-0.84-0.06-1.69-0.08-2.54-0.1
			c-1.19-0.03-2.41-0.06-3.59-0.21c-2.91-0.33-5.35-1.73-8.24-3.53c-1-0.62-2.08-1.35-3.36-2.27l-0.96-0.69v-7.66l0.24,0.14
			c3.37,1.97,6.42,2.98,9.62,3.16c1.71,0.09,3.44,0.05,5.11,0.01l1.33-0.04c0.08,0,0.16,0,0.24,0c2.25,0,4.02,0.77,5.41,2.36
			l0.45,0.24l0.87,1.24c0.82,1.17,1.64,2.34,2.43,3.53c0.96,1.46,1.95,3.05,3.12,5.04c0.44,0.73,0.85,1.47,1.26,2.21
			c0.53,0.95,1.05,1.89,1.62,2.8c0.62,0.99,1.33,1.93,2.02,2.84l0.68,0.91c0.46,0.61,0.92,1.24,1.47,1.79
			c1.67,1.71,3.5,2.8,5.58,3.34c0.62,0.16,1.24,0.24,1.84,0.24c1.1,0,2.16-0.26,3.19-0.79c1.91-0.99,3.52-2.31,4.77-3.96
			c0.66-0.86,1.28-1.76,1.9-2.66c0.66-0.96,1.35-1.95,2.07-2.87c1.44-1.82,3.05-3.72,5.08-5.95c1.66-1.84,3.36-3.58,5.04-5.18
			c1.13-1.07,2.45-2.16,4.05-3.35c1.23-0.91,2.43-1.67,3.59-2.24c2-1,3.83-0.93,5.43,0.19c1.29,0.9,2.33,1.78,3.17,2.69
			c1.02,1.1,1.89,2.4,2.67,3.56c2.56,3.79,5.87,5.35,10.21,4.87c1.29-0.15,2.65-0.4,4.38-0.78l1.17-0.26l-0.84-0.85
			c-0.81-0.81-1.6-1.6-2.42-2.4l-0.21-0.19l-0.28,0.01c-0.26,0.01-0.52,0-0.77,0.01c-2.76-0.06-4.95-0.55-6.6-2.71
			c-1.12-1.48-1.99-3.15-2.83-4.76c-0.45-0.86-0.9-1.72-1.44-2.67l-0.26-0.35c-2.68-2.04-5.42-3.98-8.14-5.76l-0.16-0.1l-0.46,0.05
			c-1.59,0.61-3.23,1.6-5,3.04c-1.43,1.17-2.69,2.56-3.9,3.9l-0.47,0.52c-2.01,2.22-3.99,4.51-5.83,6.67
			c-1.08,1.25-2.14,2.52-3.21,3.79l-1.33,1.59l-0.81,1.19c-0.9,1.35-1.81,2.69-2.73,4.03c-0.26,0.38-0.54,0.75-0.82,1.11
			c-0.4,0.52-0.8,1.05-1.15,1.6c-1.13,1.76-2.51,3.2-4.24,4.41c-2.38,1.67-5.1,0.85-6.85-0.49c-1.82-1.38-3.3-3.05-4.4-4.97
			c-0.44-0.79-0.95-1.55-1.45-2.31c-0.39-0.59-0.79-1.18-1.15-1.78c-0.63-1.04-1.2-2.11-1.77-3.17l-0.46-0.85
			c-0.26-0.48-0.51-0.97-0.76-1.46c-0.36-0.71-0.73-1.42-1.11-2.12c-0.6-1.09-1.31-2.36-2.11-3.61c-0.39-0.61-0.81-1.19-1.22-1.78
			c-0.36-0.5-0.72-1-1.06-1.52c-1.73-2.69-3.99-4.17-6.7-4.41c-2.02-0.19-4.11-0.11-5.89-0.02c-3.88,0.17-7.14-0.39-9.89-1.76
			l-1.27-0.71v-10.96l0.4,0.11c2.12,0.55,4.29,0.44,6.37,0.34l0.35-0.02c2.9-0.12,5.5-0.18,8.08,0.63c2.83,0.88,4.92,2.43,6.39,4.75
			l0.57,0.9c0.84,1.33,1.71,2.7,2.5,4.08c0.53,0.93,1.01,1.95,1.47,2.92c0.21,0.44,0.41,0.88,0.62,1.31l3.17,6.51
			c0.59,1.22,1.17,2.44,1.78,3.65c0.59,1.13,1.25,2.3,1.98,3.48l0.48,0.79c0.84,1.38,1.71,2.8,2.72,4.1
			c1.08,1.38,2.81,3.28,5.49,3.73c0.27,0.05,0.54,0.07,0.81,0.07c1.18,0,2.32-0.44,3.27-1.28c1.68-1.47,3.06-3.21,4.1-5.18
			c0.37-0.68,0.81-1.33,1.27-2c0.33-0.5,0.66-0.99,0.97-1.49c0.34-0.57,0.67-1.17,0.99-1.75c0.32-0.57,0.62-1.15,0.97-1.71
			c0.52-0.87,1.06-1.73,1.6-2.58l0.46-0.73c1.25-1.96,2.5-3.93,3.76-5.88c0.52-0.8,1.07-1.58,1.63-2.34c1.19-1.64,2.4-3.26,3.6-4.88
			l1.87-2.52l-0.67-0.37c-1.19-0.64-2.38-1.28-3.57-1.89l-0.43-0.22l-0.3,0.3l-0.15,0.18c-0.41,0.57-0.79,1.16-1.16,1.76
			c-0.64,1.05-1.28,2.11-1.93,3.18l-1.11,1.84c-0.44,0.73-0.88,1.46-1.31,2.19c-0.66,1.13-1.29,2.28-1.93,3.43
			c-0.35,0.65-0.7,1.31-1.04,1.96l-2.62,4.92c-0.35,0.66-0.7,1.32-1.06,1.97l-0.59,1.05c-0.61,1.11-1.24,2.25-1.97,3.28
			c-0.74,1.05-1.69,1.98-2.61,2.81c-0.92,0.84-1.96,1.08-3.17,0.71c-2.03-0.6-3.21-2.18-4.45-3.86c-0.21-0.28-0.41-0.55-0.62-0.82
			c-0.7-0.91-1.25-1.98-1.78-3.01l-0.44-0.84c-0.93-1.76-1.83-3.54-2.71-5.34c-0.59-1.2-1.16-2.43-1.73-3.65l-1.6-3.43
			c-0.68-1.45-1.36-2.9-2.06-4.33c-0.81-1.64-1.57-3.09-2.33-4.46c-0.57-1.02-1.15-2-1.91-2.87c-0.25-0.29-0.5-0.58-0.75-0.88
			c-1-1.2-2.05-2.43-3.37-3.31c-3.11-2.05-6.71-3.01-10.81-2.9c-0.7,0.02-1.4,0.06-2.11,0.09c-0.99,0.06-2.01,0.11-3.02,0.11
			c-0.46-0.01-0.91-0.03-1.36-0.08l-1.01-0.11v-37.15c-76.57,0-138.64,62.07-138.64,138.63s62.07,138.63,138.64,138.63v-0.09
			l0.09,0.14c0.39,0.57,0.79,1.17,1.28,1.7l0.82,0.89c1.04,1.13,2.11,2.31,3.32,3.3c1.04,0.85,2.45,1.23,3.43,1.45
			c0.47,0.1,0.93,0.15,1.37,0.15c2.3,0,4.17-1.28,5.73-2.6c1.26-1.06,2.36-2.33,3.43-3.54l0.2-0.23c0.72-0.81,1.41-1.71,2.23-2.94
			c0.72-1.08,1.41-2.2,2.09-3.3l0.56-0.91c0.66-1.06,1.32-2.13,1.95-3.21c0.26-0.46,0.52-0.93,0.76-1.4
			c0.33-0.62,0.66-1.24,1.02-1.84c0.83-1.35,1.73-2.64,2.49-3.72l0.64-0.91c0.73-1.06,1.49-2.15,2.33-3.11
			c1.8-2.06,3.66-4.19,6.14-5.53c0.9-0.48,2.02-1.08,3.09-1.25c2.07-0.39,5.08,1.45,6.11,3.56c0.53,1.08,1.19,2.07,1.96,3.22
			c0.82,1.21,1.67,2.45,2.64,3.6l0.68,0.8c1.41,1.66,2.87,3.38,4.5,4.88c1.97,1.83,4.59,1.8,6.81-0.12c2.56-2.2,4.41-4.96,6.09-7.61
			c1.32-2.07,2.59-4.35,4.05-7.28c1.12-2.25,2.29-4.57,3.05-7.01c1.26-4.03,2.27-8.18,3.27-12.27c0.55-2.23,1.05-4.48,1.55-6.73
			c0.56-2.47,1.11-4.95,1.72-7.41c1.18-4.75,2.76-10.99,4.56-17.22c0.37-1.34,1.19-2.77,2.28-4.03c0.97-1.1,2.29-2.15,3.92-3.13
			c1.55-0.93,3.22-1.76,4.84-2.56c0.67-0.33,1.34-0.66,2-1c2.32-1.19,4.7-2.6,6.47-4.85c1.43-1.84,1.87-3.75,1.31-5.72
			c-0.46-1.57-1.02-3.08-1.69-4.5c-0.56-1.19-1.17-2.35-1.77-3.51c-0.7-1.36-1.43-2.76-2.06-4.16c-0.98-2.18-1.57-4.42-1.75-6.67
			c-0.26-3.48,0.74-6.73,1.78-9.76l0.26-0.77c0.73-2.1,1.47-4.27,2.11-6.45c0.96-3.28,0.3-6.23-1.91-8.53
			c-1.28-1.35-2.93-2.38-4.39-3.22c-1.38-0.79-2.82-1.51-4.22-2.2c-0.78-0.38-1.57-0.77-2.34-1.17c-1.68-0.87-3.04-2.29-4.17-4.33
			c-0.66-1.2-1.35-2.4-2.07-3.57c-1.12-1.85-2.25-3.68-3.42-5.49l-0.39-0.61c-0.63-0.99-1.28-2-2.07-2.91
			c-1.43-1.62-3.14-3.47-5.36-4.71c-2.47-1.4-4.57-1.85-6.83-1.59c-2.17,0.28-4.06,1.09-6.12,2.04c-2,0.93-4.26,1.98-6.51,2.89
			c-1.84,0.75-4.03,1.6-6.21,2.24c-1.42,0.41-3.03,0.7-5.08,0.93c-2.4,0.28-4.72,0.47-6.94-0.19c-1.81-0.54-3.62-1.25-5.37-1.94
			l-1.37-0.53c-4.26-1.63-8.32-2.19-12.4-1.73c-3.16,0.39-6.14-0.61-8.83-2.93c-1.16-1.01-2.25-2.17-3.31-3.28
			c-0.82-0.88-1.66-1.75-2.53-2.58c-1.19-1.13-2.43-2.23-3.66-3.32l-2.23-1.99v-7.5l0.76,0.7c2.14,1.95,4.37,3.97,6.71,5.94
			c2.33,1.95,4.72,3.97,7.95,4.55c1.73,0.3,3.52,0.39,5.09,0.47c1.74,0.08,3.48,0.57,5.64,1.58c1.71,0.8,3.7,1.77,5.56,2.9
			c2.22,1.34,4.78,2.44,7.83,3.36c2.89,0.88,5.89,0.67,9.17-0.64c1.72-0.68,3.38-1.42,4.93-2.19c0.74-0.37,1.42-0.82,2.09-1.28
			l2.76-1.8c0.94-0.62,1.88-1.23,2.83-1.84c0.35-0.23,0.7-0.46,1.04-0.69c0.93-0.62,1.89-1.26,2.88-1.78
			c3.12-1.63,6.49-3.04,10.21-2.29c1.62,0.33,3.19,1.06,4.71,1.76c3.05,1.41,6.32,2.35,9.71,2.8c1.55,0.21,3.29,0.46,4.88,0.99
			c1.38,0.46,2.22,1.6,2.68,2.47c1.67,3.14,2.18,6.68,2.67,10.11l0.22,1.49c0.61,4.09,2.66,7.43,6.09,9.92
			c1.02,0.75,2.11,1.43,3.17,2.09c0.93,0.58,1.85,1.17,2.75,1.8c1.84,1.29,3.72,2.72,5.77,4.37c1.51,1.22,1.94,2.87,1.35,5.17
			c-0.44,1.71-1.3,3.31-2.71,5.06c-0.36,0.44-0.73,0.86-1.11,1.28c-0.62,0.7-1.26,1.42-1.82,2.2c-0.33,0.48-0.68,0.95-1.02,1.42
			c-1.05,1.42-2.13,2.89-2.89,4.6l-0.46,1.02c-0.81,1.79-1.66,3.65-2.01,5.71c-0.38,2.18-0.17,4.35,0.64,6.61
			c0.85,2.35,1.93,4.39,3.31,6.23c1.25,1.66,2.37,3.16,3.44,4.71l0.35,0.52c1.24,1.78,2.41,3.47,2.81,5.56
			c0.28,1.41-0.05,2.75-0.92,3.77c-1.46,1.69-3.05,3.21-4.75,4.49c-1.31,0.99-2.74,1.87-4.12,2.74c-1.06,0.66-2.12,1.32-3.14,2.03
			c-1.57,1.08-2.99,2.23-4.24,3.42c-2.25,2.14-3.49,4.85-4.41,7.21c-0.41,1.08-0.84,2.15-1.26,3.23c-0.72,1.84-1.45,3.68-2.14,5.53
			c-0.68,1.82-1.4,3.77-1.98,5.78c-1.44,4.97-2.58,9.09-3.59,12.98c-0.48,1.84-0.9,3.7-1.31,5.56c-0.37,1.6-0.73,3.21-1.13,4.8
			l-0.06,0.21c-0.84,3.34-1.73,6.8-3.32,9.9c-1.03,2-2.05,3.96-3.21,5.85c-0.97,1.58-2.07,3.13-3.13,4.63l-0.65,0.92
			c-1.09,1.56-2.23,3.16-3.45,4.7c-1.02,1.28-2.22,2.76-3.54,4.04c-1.47,1.42-3.07,2.4-4.77,2.9c-2.4,0.71-4.53,0.1-6.71-1.95
			c-1.94-1.84-3.04-4.19-4-6.45c-0.33-0.79-0.66-1.59-0.99-2.39c-0.86-2.11-1.76-4.28-2.81-6.34c-0.61-1.2-1.67-2.42-3.18-3.6
			c-1.26-1-2.97-1.08-4.71-0.21c-1.35,0.66-2.36,1.35-3.12,2.13c-1.71,1.77-3.14,3.46-4.37,5.17c-0.79,1.08-1.43,2.25-2.05,3.4
			c-0.28,0.52-0.57,1.04-0.86,1.55l-0.64,1.08c-0.39,0.65-0.79,1.31-1.16,1.98c-0.26,0.49-0.52,0.99-0.77,1.48
			c-0.28,0.55-0.55,1.09-0.86,1.63c-0.48,0.84-0.99,1.66-1.51,2.47l-3.14,4.98l-0.12,0.16c-0.6,0.68-1.19,1.38-1.77,2.07
			c-1.37,1.61-2.78,3.28-4.31,4.76c-1.85,1.82-3.56,2.87-5.36,3.32c-1.67,0.42-3.16,0.13-4.53-0.9c-0.23-0.17-0.46-0.33-0.7-0.49
			c-0.53-0.36-1.04-0.7-1.4-1.12c-1.01-1.17-1.97-2.4-2.69-3.35l-1.18-1.55v6.43l0.79,1.06c1.39,1.92,3.12,3.41,5.14,4.42
			c0.81,0.41,1.65,0.61,2.54,0.61c1.15,0,2.37-0.34,3.65-1.02l0.26-0.14c1.15-0.62,2.35-1.26,3.3-2.19c2.5-2.42,4.81-4.86,6.88-7.24
			c0.92-1.08,1.69-2.29,2.43-3.46c0.3-0.48,0.61-0.95,0.92-1.43c0.73-1.12,1.46-2.24,2.15-3.41c0.44-0.75,0.86-1.52,1.27-2.29
			l0.96-1.76c0.39-0.72,0.79-1.44,1.17-2.15c0.19-0.35,0.38-0.71,0.56-1.07c0.36-0.7,0.72-1.4,1.13-2.07
			c0.44-0.74,0.92-1.46,1.4-2.18c0.28-0.43,0.57-0.86,0.84-1.3c1.19-1.85,2.88-4.16,5.37-5.53c1.02-0.57,2.58-0.96,4.15,0.46
			c1.38,1.26,2.18,2.96,3.01,4.88c0.7,1.65,1.33,3.37,1.93,5.04c0.53,1.45,1.05,2.89,1.63,4.32c1.02,2.47,2.34,5.24,5.2,6.83
			c1.79,1,3.72,1.22,5.93,0.68c3.28-0.82,5.73-3.01,7.77-5.01c1.57-1.54,3.01-3.24,4.41-4.88c0.63-0.74,1.26-1.49,1.99-2.33
			l0.12-0.15c0.43-0.59,0.86-1.17,1.29-1.75c1.02-1.37,2.07-2.8,3.05-4.26l0.3-0.44c1.17-1.77,2.38-3.6,3.25-5.58
			c1.06-2.43,1.78-4.97,2.48-7.56c0.79-2.94,1.55-5.89,2.31-8.84c0.68-2.68,1.37-5.36,2.09-8.03c0.62-2.31,1.39-4.77,2.43-7.74
			c0.64-1.83,1.38-3.66,2.09-5.44l0.61-1.53c0.5-1.27,1.04-2.52,1.58-3.78l0.36-0.86c0.9-2.13,1.8-4.24,2.73-6.36l0.25-0.59
			c0.72-1.67,1.4-3.26,2.57-4.57c1.99-2.21,4.29-4.15,7.03-5.94c0.88-0.58,1.73-1.2,2.57-1.82s1.69-1.25,2.57-1.82
			c2.29-1.48,4.12-3.12,5.6-5c1.14-1.46,1.6-3.19,1.33-5c-0.3-2.09-1.44-3.68-2.55-5.23l-0.14-0.19c-1.31-1.83-2.83-3.53-4.15-4.99
			c-1.58-1.72-2.94-3.65-4.16-5.9c-1.03-1.9-1.51-3.83-1.48-5.89c0.04-1.93,0.75-3.66,1.5-5.51c1.04-2.56,2.49-4.88,4.42-7.07
			c1.06-1.21,2.11-2.43,3.16-3.66l1.28-1.49c1.49-1.73,2.61-3.64,3.31-5.69c0.89-2.67,1.27-5.47-1.96-8
			c-1.15-0.9-2.45-1.6-3.72-2.28c-0.64-0.34-1.28-0.68-1.89-1.05l-1.19-0.7c-1.39-0.81-2.83-1.66-4.13-2.61
			c-1.06-0.79-2.43-1.86-3.65-3.21c-1.62-1.81-2.54-3.54-2.87-5.45c-0.32-1.81-0.55-3.68-0.77-5.48c-0.1-0.81-0.19-1.61-0.3-2.42
			l-0.13-0.97c-0.37-2.83-0.75-5.75-1.98-8.47c-0.42-0.93-1.01-2.11-1.89-2.92c-1.09-0.98-2.59-1.47-4.32-1.35
			c-1.17,0.08-2.43,0.21-3.85,0.41c-3.3,0.44-5.75,0.28-7.97-0.57c-1.44-0.55-2.89-1.21-4.28-1.85l-0.91-0.41
			c-5.38-2.45-10.21-0.4-13.81,1.66c-1.22,0.7-2.4,1.52-3.53,2.31l-0.93,0.66c-0.98,0.67-1.95,1.37-2.9,2.05l-1.16,0.84
			c-0.34,0.24-0.68,0.49-1.01,0.73c-0.77,0.57-1.5,1.11-2.29,1.58c-1.21,0.7-2.51,1.33-3.77,1.93l-0.7,0.33
			c-2.73,1.33-5.28,1.67-7.72,1.02c-2.04-0.53-4.18-1.19-6.1-2.41c-0.58-0.37-1.18-0.71-1.78-1.05c-0.66-0.38-1.32-0.75-1.96-1.17
			c-0.77-0.51-1.51-1.06-2.26-1.6c-0.75-0.54-1.49-1.08-2.26-1.6c-0.89-0.58-1.86-1.03-2.85-1.49c-1.9-0.88-3.91-0.98-5.85-1.08
			c-0.38-0.01-0.76-0.03-1.14-0.06c-1.95-0.13-3.85-0.78-5.64-1.94c-1.59-1.03-3.12-2.23-4.67-3.48c-1.88-1.49-3.39-2.78-4.75-4.03
			l-1.59-1.47v-7.18l0.63,0.48c0.51,0.39,1.02,0.79,1.55,1.15c2.64,1.83,5.08,3.35,7.46,4.64c2.33,1.26,4.9,1.37,7.34,1.37
			c2,0,3.68,0.07,5.11,1.02c0.24,0.15,0.48,0.3,0.72,0.45c0.97,0.59,1.87,1.15,2.37,2.08c0.08,0.15,0.17,0.24,0.27,0.34
			c1.32,1.47,2.64,2.94,3.96,4.39c0.3,0.33,0.61,0.68,0.9,1.02c0.7,0.81,1.43,1.65,2.25,2.39c3.01,2.72,5.8,4.24,8.78,4.79
			c2.4,0.43,4.68,0.08,6.82-1.06c2.94-1.57,5.71-3.65,8.98-6.77c1.39-1.31,2.9-2.59,4.5-3.78c2.76-2.05,5.49-4,8.69-5.18
			c3.05-1.11,5.97-0.97,8.68,0.47c0.91,0.48,1.8,1.09,2.66,1.68l0.66,0.46c2.72,1.82,5.77,2.34,9.06,1.47
			c1.13-0.29,2.26-0.61,3.39-0.93c0.88-0.26,1.77-0.51,2.66-0.75c1.62-0.44,3.76-0.86,5.84-0.26c1.06,0.3,1.84,0.88,2.42,1.78
			c1.61,2.54,1.81,5.35,2.02,8.32c0.06,0.8,0.12,1.59,0.2,2.38c0.28,2.61,0.47,5.28,0.65,7.87c0.14,1.98,0.28,3.96,0.46,5.94
			c0.26,2.85,1.21,5.25,2.83,7.14c0.19,0.23,0.38,0.46,0.57,0.7c0.41,0.51,0.82,1.02,1.28,1.48c1.76,1.75,4.03,3.05,7.12,4.08
			c0.77,0.26,1.53,0.5,2.31,0.74c1.66,0.52,3.37,1.06,4.99,1.71c1.14,0.46,2.16,1.19,2.89,2.06l1.23,1.49l-0.17,1.84
			c-0.18,1.9-0.6,3.36-1.33,4.59c-1.09,1.89-2.23,3.84-3.45,5.69c-1.08,1.64-2.28,3.21-3.21,4.38c-0.55,0.68-1.12,1.35-1.69,2.01
			c-0.77,0.89-1.57,1.8-2.28,2.77c-2.41,3.25-3.65,6.9-3.67,10.85c-0.02,1.96,0.84,3.67,1.65,5.12c1.6,2.87,3.99,4.97,6.3,7.01
			c0.82,0.72,1.64,1.44,2.42,2.19c0.75,0.71,1.55,1.39,2.34,2.07c0.9,0.76,1.83,1.55,2.66,2.38c1.33,1.33,2.14,2.66,2.51,4.05
			c0.35,1.36,0.1,2.54-0.77,3.6c-1.29,1.58-2.83,2.9-4.68,4.06c-1.17,0.72-2.31,1.49-3.45,2.27c-0.76,0.52-1.53,1.04-2.3,1.55
			c-0.64,0.42-1.29,0.81-1.94,1.2c-0.87,0.53-1.73,1.06-2.57,1.63c-1.53,1.06-2.87,2.09-4.08,3.15c-1.02,0.9-2.2,1.98-3.12,3.24
			c-1.11,1.53-2.06,3.19-2.98,4.79l-0.14,0.24c-0.6,1.05-1.13,2.14-1.67,3.23l-0.49,0.99c-0.48,0.93-0.93,1.88-1.4,2.82l-3.42,6.87
			c-0.57,1.12-1.14,2.25-1.66,3.39c-0.94,2.05-1.67,3.75-2.29,5.36l-0.6,1.55c-0.82,2.11-1.67,4.28-2.29,6.49
			c-1.66,5.92-3.39,12.42-5.43,20.47c-0.69,2.71-1.44,4.66-2.44,6.33l-0.32,0.53c-0.95,1.61-1.85,3.13-3.39,4.16
			c-1.13,0.76-2.2,1.64-3.23,2.49c-0.43,0.36-0.86,0.71-1.3,1.06l-0.77,0.62c-1.19,0.94-2.36,1.88-3.52,2.86
			c-0.69,0.59-1.35,1.19-2.02,1.8c-0.55,0.51-1.09,1.01-1.66,1.5l-1.09,0.97c-1.18,1.04-2.4,2.13-3.68,3.03
			c-2.06,1.46-4.13,2.75-6.61,2.75c-0.15,0-0.32-0.01-0.47-0.01c-1.81-0.12-3.2-1.02-4.52-2.92c-1.07-1.54-1.92-3.3-2.68-5.55
			l-0.64-1.9c-0.64-1.91-1.28-3.81-1.99-5.69l-0.14-0.37c-0.64-1.74-1.31-3.54-2.27-5.16c-0.55-0.92-1.69-2.81-3.91-2.81
			c-0.06,0-0.12,0-0.17,0.01c-1.17,0.05-2.27,0.53-3.28,1.44c-1.32,1.18-2.47,2.69-3.52,4.62c-0.39,0.72-0.82,1.42-1.24,2.13
			c-0.43,0.71-0.87,1.44-1.27,2.17c-0.41,0.75-0.78,1.51-1.15,2.27c-0.29,0.61-0.58,1.2-0.9,1.8c-0.32,0.61-0.68,1.2-1.03,1.8
			c-0.23,0.39-0.46,0.77-0.69,1.16l-0.86,1.51c-0.37,0.66-0.73,1.31-1.11,1.96c-0.35,0.6-0.68,1.17-1.07,1.69l-0.44,0.61
			c-0.59,0.82-1.2,1.66-1.87,2.42c-0.58,0.66-1.15,1.33-1.73,1.99c-1.76,2.04-3.57,4.14-5.53,6.02c-2.68,2.58-5.15,4.12-7.79,4.84
			c-1.93,0.53-3.45,0.35-4.98-0.62c-0.91-0.59-1.74-1.35-2.68-2.48l-1.17-1.41v6.28l0.19,0.19c0.47,0.49,0.96,0.94,1.44,1.33
			c1.32,1.07,2.85,1.61,4.58,1.61c0.33,0,0.67-0.02,1.01-0.06c3.1-0.35,5.65-1.94,7.53-3.28c1.77-1.28,3.59-2.85,5.73-4.94
			c1.24-1.22,2.37-2.58,3.47-3.9l0.82-1c0.85-1.01,1.76-2.16,2.87-3.62c0.45-0.62,0.85-1.27,1.31-2.04
			c0.59-0.99,1.17-1.99,1.73-2.99l0.62-1.08c0.48-0.83,0.96-1.66,1.4-2.51c0.33-0.61,0.64-1.23,0.95-1.85
			c0.35-0.71,0.71-1.43,1.09-2.14c0.31-0.57,0.64-1.13,0.97-1.69c0.47-0.79,0.95-1.62,1.37-2.47c0.85-1.73,2.03-3.23,3.6-4.61
			c0.54-0.46,1.34-0.73,2.09-0.61c0.55,0.07,0.99,0.31,1.27,0.73c0.9,1.33,1.82,2.72,2.37,4.18c0.77,2.04,1.48,4.15,2.17,6.19
			c0.63,1.89,1.27,3.79,1.96,5.66c0.85,2.32,1.89,4.06,3.28,5.46c1.95,2.02,4.26,2.63,7.05,1.87c2.63-0.71,4.61-2.37,6.52-3.97
			l0.92-0.77c0.63-0.52,1.23-1.06,1.84-1.62c0.48-0.44,0.97-0.89,1.47-1.31c0.37-0.32,0.73-0.63,1.09-0.95
			c1.13-0.99,2.29-2,3.52-2.83c1.26-0.85,2.64-1.6,3.97-2.33c0.66-0.36,1.33-0.72,1.98-1.09c0.35-0.21,0.72-0.4,1.08-0.59
			c0.93-0.5,1.89-1.01,2.73-1.68c2.63-2.08,4.43-5.09,5.48-9.18c0.51-1.98,0.99-3.97,1.47-5.97c0.61-2.54,1.24-5.17,1.93-7.72
			c1.21-4.5,2.53-8.95,3.92-13.26c0.54-1.67,1.28-3.34,2-4.94l0.64-1.45c0.59-1.36,1.23-2.71,1.87-4.04l0.41-0.87
			c0.65-1.35,1.31-2.69,1.98-4.02c0.63-1.24,1.27-2.46,1.94-3.67c0.49-0.89,1-1.77,1.5-2.65l1.83-3.2c0.35-0.61,0.7-1.23,1.06-1.85
			l0.15-0.28c0.53-0.91,1.05-1.82,1.6-2.71c0.24-0.39,0.47-0.77,0.7-1.16c0.57-0.96,1.16-1.95,1.83-2.83
			c1.42-1.88,3.36-3.33,5.24-4.73l0.87-0.66c0.53-0.39,1.08-0.73,1.64-1.08c1.37-0.85,2.75-1.69,4.14-2.52
			c1.29-0.77,2.58-1.51,3.89-2.27c0.41-0.24,0.83-0.47,1.24-0.71c0.86-0.48,1.71-0.96,2.54-1.49c0.58-0.39,1.14-0.8,1.69-1.21
			l0.22-0.16l0.04-0.27c0.53-3.57,0.93-7.27,1.18-10.98l0.02-0.3l-0.21-0.21C1185.37,344.45,1183.86,343.06,1182.27,341.72z
			 M1048.07,363.48c0.9,2.39,1.76,4.81,2.61,7.22c0.19,0.52,0.36,1.03,0.54,1.55c1.13,3.3,2.3,6.72,4.83,9.5
			c0.76,0.83,1.96,1.45,3.18,1.45c0.5,0,1-0.1,1.47-0.33c1.48-0.74,2.54-1.87,3.31-2.78c1.78-2.1,3.11-4.57,4.17-7.79
			c1.54-4.62,0.74-8.67-2.38-12.01c-1.26-1.36-2.69-3.03-3.72-5.05c-0.28-0.54-0.56-1.08-0.84-1.62c-0.76-1.43-1.54-2.9-2.14-4.41
			c-0.91-2.33-1.78-4.68-2.64-7.02c-0.91-2.5-1.86-5.08-2.87-7.59c-0.63-1.59-1.54-3.99-3.4-5.8l-0.43-0.42l-0.36-0.28
			c-0.21-0.16-0.37-0.25-0.6-0.39l-0.74-0.44v-8.2l0.15,0.13c0.94,0.79,1.82,1.77,2.69,3.01c2.14,3.05,3.59,6.49,5.01,10.03
			c0.84,2.1,1.96,4.86,3.28,7.56c0.46,0.94,1.06,1.81,1.63,2.65c0.35,0.52,0.71,1.04,1.03,1.58c1.15,1.93,2.89,3.37,5.17,4.3
			c1.23,0.5,2.53,0.81,3.52,1.02c1.61,0.35,3.47,0.88,5.09,2.1c1.66,1.24,2.67,2.96,3.11,5.25c0.66,3.4,0.31,6.85-1.05,10.56
			c-0.74,2.02-1.61,4.06-2.64,6.23c-0.38,0.78-0.87,1.51-1.38,2.28c-0.24,0.35-0.48,0.71-0.71,1.08l-0.93,1.5
			c-0.56,0.9-1.11,1.8-1.69,2.69c-0.39,0.63-0.8,1.24-1.25,1.84c-0.97,1.25-1.94,2.48-2.93,3.72l-0.64,0.81
			c-0.64,0.81-1.29,1.64-2,2.38c-1.11,1.15-2.27,1.93-3.54,2.38c-0.93,0.33-1.84,0.21-2.55-0.34c-0.94-0.73-1.81-1.67-2.51-2.72
			c-2.06-3.09-3.32-6.64-4.53-10.07c-0.37-1.06-0.75-2.13-1.15-3.18l-1.19-3.15V363.48z M1048.07,353.94v-20.67l0.86,0.83
			c1.71,1.55,2.61,3.59,3.54,5.92c0.82,2.09,1.56,4.26,2.26,6.37c0.41,1.21,0.82,2.43,1.25,3.63l0.06,0.2
			c1.11,3.12,2.25,6.34,3.48,9.47c0.38,0.98,0.82,1.95,1.26,2.9c0.7,1.51,1.42,3.08,1.85,4.66c0.9,3.28,0.14,6.33-2.2,8.8
			c-0.48,0.5-1.06,0.78-1.63,0.78c-0.01,0-0.01,0-0.02,0c-0.58,0-1.16-0.28-1.67-0.8c-1.71-1.76-2.6-3.93-3.36-6
			c-0.74-2.03-1.44-4.07-2.13-6.11c-0.77-2.27-1.55-4.53-2.38-6.78L1048.07,353.94z M1048.07,381.59c0.53,1.31,1.06,2.63,1.59,3.96
			c0.7,1.73,1.38,3.47,2.09,5.2c1.06,2.57,2.33,4.41,4.03,5.76c0.95,0.76,1.98,1.15,3.09,1.15c0.35,0,0.72-0.05,1.09-0.12
			c1.64-0.35,2.81-1.34,3.94-2.29l0.45-0.38c0.66-0.55,1.16-1.24,1.65-1.9c0.19-0.24,0.37-0.49,0.55-0.73l1.46-1.82
			c1.25-1.56,2.49-3.11,3.72-4.68c1.53-1.96,2.75-3.57,3.83-5.06c0.73-1.02,1.44-2.05,2.14-3.09c0.56-0.82,1.12-1.64,1.7-2.46
			c1.53-2.17,2.78-4.72,3.82-7.79c1.74-5.15,2.33-9.43,1.86-13.48c-0.37-3.18-1.48-5.63-3.41-7.5c-2.34-2.29-5.3-3.1-7.61-3.56
			c-0.77-0.15-1.56-0.24-2.35-0.32c-0.93-0.1-1.82-0.19-2.69-0.4c-1.47-0.37-2.69-0.88-3.61-1.51c-1.8-1.25-3.25-3.07-4.7-5.93
			c-0.85-1.67-1.64-3.42-2.39-5.11c-0.68-1.51-1.36-3.02-2.09-4.51l-0.43-0.86c-1.17-2.36-2.37-4.8-3.92-6.99
			c-0.86-1.19-1.8-2.22-2.81-3.05l-0.99-0.81v-7.47l0.14,0.12c0.14,0.12,0.28,0.23,0.43,0.34c0.15,0.12,0.3,0.23,0.43,0.34
			c1.12,1.07,2.07,2.4,2.99,3.7l0.55,0.77c0.78,1.08,1.56,2.33,2.4,3.81c0.52,0.9,0.99,1.83,1.46,2.76
			c0.28,0.57,0.57,1.13,0.86,1.69l0.41,0.8c0.4,0.79,0.81,1.6,1.33,2.35l0.43,0.62c1.09,1.59,2.21,3.23,3.53,4.68
			c1.66,1.84,4.01,2.79,7,2.83l0.93,0.01c2.36,0.02,4.6,0.05,6.76,0.75c1.98,0.65,3.9,1.39,5.71,2.19c1.36,0.6,2.72,1.31,4.03,1.99
			l2.86,1.44c1.22,0.61,2.49,1.22,3.68,1.9c2,1.13,4,2.48,5.14,4.66c1.02,1.93,0.56,3.95-0.08,5.85c-0.7,2.05-1.5,4.06-2.13,5.58
			c-1.29,3.18-2.84,6.92-4.45,10.62c-1.18,2.71-2.21,4.89-3.25,6.87c-0.54,1.04-1.19,2.07-1.82,3.06c-0.37,0.59-0.74,1.17-1.09,1.76
			c-1.75,2.94-3.82,5.57-6.16,7.83l-1.02,1.08c-0.61,0.65-1.22,1.3-1.85,1.93c-0.92,0.93-1.85,1.86-2.78,2.79
			c-1.75,1.74-3.49,3.48-5.19,5.26c-1.31,1.38-2.82,3.03-4.1,4.86c-0.88,1.26-2.03,2.4-3.63,3.59c-2.04,1.53-3.96,1.55-5.69,0.03
			c-1.58-1.35-2.78-2.96-3.68-4.95c-0.63-1.37-1.25-2.75-1.87-4.13l-2.28-5.04V381.59z M1048.29,399.43
			c0.25,0.54,0.5,1.09,0.77,1.62c0.77,1.57,1.62,3.07,2.58,4.73c0.23,0.4,0.5,0.77,0.77,1.15c0.19,0.26,0.39,0.53,0.57,0.81
			c1.09,1.73,2.64,2.81,4.6,3.21c0.38,0.08,0.75,0.12,1.12,0.12c1.58,0,3.07-0.7,4.55-2.12c0.91-0.87,1.73-1.84,2.51-2.78
			c0.69-0.81,1.4-1.66,2.16-2.42c0.87-0.88,1.64-1.84,2.39-2.78c1.15-1.45,2.25-2.81,3.69-3.89c0.99-0.73,1.88-1.6,2.74-2.43
			c0.39-0.37,0.77-0.75,1.16-1.1l6-5.49c0.46-0.57,0.94-1.13,1.42-1.71c1.08-1.29,2.2-2.64,3.24-4.03c0.82-1.1,1.56-2.29,2.27-3.43
			c0.27-0.44,0.54-0.88,0.82-1.31c0.39-0.61,0.77-1.2,1.11-1.84c0.73-1.35,1.44-2.72,2.14-4.09c0.91-1.78,1.82-3.56,2.72-5.34
			c0.41-0.8,0.8-1.6,1.2-2.4c0.54-1.1,1.08-2.2,1.65-3.29c0.88-1.69,1.82-3.41,2.8-5.09c0.51-0.87,1.04-1.72,1.57-2.58
			c0.57-0.93,1.15-1.86,1.7-2.81l0.4-0.69c0.8-1.38,1.63-2.8,2.25-4.3c0.92-2.18,0.59-4.42-0.91-6.3c-1.28-1.59-3.01-2.85-5.15-3.74
			c-4.04-1.66-7.36-2.93-10.45-3.99c-2.54-0.86-4.97-2.08-7.33-3.26c-0.7-0.35-1.41-0.71-2.12-1.05c-1.62-0.79-3.37-1.49-5.19-2.06
			c-2.52-0.8-5.17-0.78-7.46-0.68c-0.16,0.01-0.33,0.01-0.49,0.01c-2.9,0-5.18-1.03-6.97-3.14l-0.44-0.52
			c-0.54-0.64-1.09-1.28-1.58-1.95c-0.64-0.88-1.28-1.86-1.89-2.92c-0.42-0.72-0.81-1.46-1.2-2.2c-0.46-0.86-0.92-1.71-1.42-2.55
			c-0.39-0.66-0.82-1.3-1.24-1.94c-0.48-0.71-0.95-1.42-1.37-2.15c-1.1-1.95-2.61-3.54-3.95-4.86c-0.21-0.2-0.43-0.38-0.65-0.56
			l-1.29-1.1v-7.73l0.47,0.38c0.37,0.3,0.75,0.59,1.08,0.93c1.05,1.06,1.96,2.33,2.85,3.55c0.32,0.44,0.63,0.88,0.95,1.31
			c0.79,1.05,1.55,2.14,2.29,3.23c0.43,0.64,0.84,1.28,1.25,1.93c0.32,0.5,0.64,1,0.96,1.48l0.24,0.39c0.27,0.43,0.55,0.88,0.9,1.28
			c0.28,0.31,0.55,0.62,0.82,0.94c0.92,1.08,1.87,2.18,2.98,3.11c1.6,1.33,3.66,2.04,5.97,2.04c0.06,0,0.14,0,0.21-0.01l2-0.04
			c1.33-0.03,2.66-0.06,3.99-0.06c1.98,0,3.83,0.64,5.79,1.31l0.49,0.17c1.85,0.62,3.25,1.14,4.55,1.67
			c1.63,0.66,3.25,1.33,4.87,2.01c1.29,0.53,2.58,1.08,3.86,1.6c0.67,0.28,1.35,0.53,2.03,0.79c0.81,0.31,1.62,0.62,2.42,0.96
			l1.19,0.52c2.8,1.2,5.68,2.44,8.46,3.77c1.04,0.5,2.01,1.14,3.03,1.82c0.4,0.26,0.81,0.53,1.21,0.79c0.7,0.45,1.41,0.89,2.12,1.33
			c1.66,1.03,3.38,2.1,4.99,3.24c2.51,1.77,4.48,3.34,5.17,6.04c0.45,1.82,0.01,3.52-1.25,4.82c-1.12,1.15-2.34,2.24-3.52,3.3
			c-1.09,0.99-2.23,2.02-3.3,3.09c-1.12,1.13-2.05,2.43-2.96,3.7l-0.41,0.58c-0.7,0.97-1.31,2-1.84,3.09
			c-0.68,1.39-1.22,2.83-1.62,3.93c-0.32,0.86-0.61,1.73-0.9,2.6c-0.46,1.41-0.42,2.42-0.54,3.9c-0.21,2.38,0.11,5.08-1.55,6.76
			c-1.83,1.85-2.01,0.72-5.21,2.42c-1.63,0.87-4.77,3.77-5.41,4.64c-0.61,0.82-1.22,1.64-1.88,2.41c-3,3.5-5.51,6.31-7.87,8.84
			c-1.29,1.39-2.8,2.79-4.71,4.41c-0.66,0.55-1.39,1.06-2.1,1.56c-0.82,0.57-1.67,1.17-2.45,1.85c-2.38,2.11-4.61,4.24-6.6,6.32
			c-1.05,1.09-2.02,2.29-2.95,3.44c-0.52,0.64-1.04,1.29-1.58,1.92c-0.37,0.43-0.73,0.88-1.09,1.32c-0.95,1.16-1.95,2.36-3.04,3.37
			c-1.82,1.66-3.6,2.15-5.4,1.55c-0.62-0.21-1.19-0.51-1.64-0.88c-1.86-1.51-3.34-3.34-4.51-5.6c-0.41-0.82-0.85-1.63-1.29-2.44
			l-1.52-2.83v-8.16L1048.29,399.43z M1048.61,415.23c0.57,1.04,1.16,2.11,1.85,3.12v0.01c0.75,1.08,1.66,2.16,2.76,3.3
			c1.61,1.66,3.29,2.47,5.12,2.47c0.49,0,0.99-0.06,1.51-0.17c1.45-0.33,2.81-1.11,4.04-2.33c1.22-1.22,2.33-2.56,3.39-3.86
			c0.43-0.52,0.84-1.02,1.28-1.53c0.03-0.05,0.06-0.09,0.12-0.18c0.28-0.39,0.55-0.79,0.82-1.19c0.63-0.93,1.22-1.8,1.95-2.56
			c1.89-2.02,3.94-3.97,5.93-5.85l0.45-0.43c0.91-0.87,1.93-1.68,2.9-2.47l0.19-0.15c0.77-0.62,1.55-1.22,2.33-1.83
			c1.02-0.8,2.04-1.6,3.04-2.42c1.05-0.86,2.05-1.78,2.99-2.66l0.29-0.27c1.71-1.6,3.43-3.21,5.09-4.86
			c0.75-0.75,1.49-1.53,2.22-2.29c0.95-1,1.91-2.01,2.91-2.97c1.38-1.31,2.92-2.61,4.93-3.18c0.93-0.26,1.89-0.62,2.84-1.07
			c2.27-1.04,3.73-2.93,4.23-5.05c1.19-5,1.11-9.56,2.9-14.24c1.42-3.73,2.6-6.39,5.26-9.06l0.55-0.57c0.58-0.6,1.13-1.17,1.75-1.64
			c0.78-0.61,1.64-1.17,2.46-1.71c0.43-0.29,0.87-0.58,1.3-0.88c0.41-0.28,0.8-0.57,1.19-0.86l0.87-0.62
			c1.39-0.98,3.09-2.38,3.86-4.61c1.41-4.11-0.68-7.34-2.36-9.4c-1.11-1.38-2.59-2.45-4-3.43c-0.86-0.59-1.78-1.08-2.68-1.55
			c-0.54-0.28-1.08-0.57-1.6-0.87c-0.47-0.28-0.95-0.55-1.44-0.81c-1.29-0.71-2.51-1.39-3.58-2.27c-1.08-0.89-2.12-1.88-3.13-2.84
			c-1.87-1.79-3.82-3.64-6.19-4.98c-0.41-0.23-0.82-0.48-1.23-0.71c-1.39-0.82-2.83-1.67-4.41-2.18c-2.22-0.72-4.52-1.28-6.75-1.82
			c-1.28-0.32-2.57-0.63-3.85-0.97c-2.09-0.56-4.17-1.19-6.25-1.82l-0.82-0.25c-0.78-0.24-1.55-0.5-2.33-0.75
			c-1.17-0.39-2.32-0.77-3.49-1.09c-2.48-0.66-4.98-0.45-7.12-0.15c-4.04,0.53-7.39-1-10.52-4.9c-0.6-0.73-1.11-1.52-1.66-2.35
			c-0.33-0.5-0.66-1-1-1.49c-0.81-1.15-1.69-2.4-2.65-3.63c-0.36-0.46-0.71-0.93-1.07-1.39c-1.12-1.47-2.29-3.01-3.61-4.35
			c-0.25-0.26-0.53-0.49-0.81-0.71l-1.36-1.16v-7.7l0.31,0.28c0.5,0.44,1,0.9,1.47,1.36c0.97,0.96,1.87,2.07,2.73,3.14
			c0.36,0.45,0.73,0.91,1.1,1.35c0.25,0.3,0.51,0.6,0.77,0.9c0.62,0.7,1.2,1.37,1.69,2.1c1.54,2.26,3.25,4.17,5.22,5.83
			c0.78,0.66,1.68,1.18,2.38,1.55c2.14,1.15,4.47,1,6.39,0.89c0.59-0.04,1.19-0.08,1.78-0.13c1.36-0.11,2.77-0.22,4.15-0.23
			c0.01,0,0.02,0,0.03,0c2.11,0,4.05,0.82,6.1,1.69l0.26,0.11c1.13,0.48,2.28,0.91,3.43,1.34c0.54,0.2,1.08,0.4,1.62,0.61
			c3.07,1.19,6.24,1.15,9.27,0.91c1.37-0.1,2.73-0.27,4.09-0.44c1.42-0.17,2.88-0.36,4.31-0.46c1.87-0.12,3.7-0.09,5.36,0.12
			c2.03,0.25,3.61,1.29,4.85,3.17c1.62,2.48,2.25,5.25,2.92,8.17l0.05,0.24c0.48,2.07,0.98,4.22,2.68,5.87
			c1.31,1.29,2.99,1.78,4.72,2.3l1.41,0.41c1.44,0.42,2.94,0.85,4.37,1.37c2.13,0.79,3.87,2.28,5.2,4.44
			c2.2,3.59,3.86,7.74,5.36,13.44c0.54,2.02,0.42,3.67-0.38,5.06c-0.36,0.64-0.84,1.2-1.35,1.8l-0.17,0.2
			c-1.24,1.49-2.92,2.35-4.7,3.26l-0.39,0.2c-0.65,0.33-1.31,0.67-1.96,1c-1.43,0.72-2.86,1.45-4.26,2.23
			c-1.13,0.63-2.18,1.44-3.15,2.21c-2.15,1.74-2.83,4.17-3.21,6.32l-0.66,3.78c-0.82,4.67-1.66,9.49-2.6,14.21
			c-0.69,3.44-1.56,7.09-2.75,11.48c-0.78,2.9-1.62,5.49-2.58,7.9c-0.52,1.29-1.46,2.51-2.32,3.52c-0.82,0.97-2.05,1.02-3.14,0.1
			c-1.01-0.86-1.85-1.6-2.63-2.41c-2.06-2.13-4.68-2.67-7.84-1.6c-1.89,0.63-3.92,1.46-6.39,2.61c-0.91,0.42-1.71,1.01-2.5,1.58
			l-0.59,0.43c-1.14,0.8-2.25,1.62-3.37,2.44l-1.13,0.82c-0.12,0.09-0.24,0.19-0.39,0.35l-1.12,0.99c-0.91,0.81-1.82,1.6-2.69,2.45
			l-1.33,1.28c-1.93,1.85-3.92,3.77-5.76,5.8c-0.91,1.01-1.64,2.18-2.33,3.3c-0.32,0.51-0.63,1.01-0.96,1.51l-0.38,0.59
			c-0.31,0.47-0.61,0.95-0.97,1.39c-0.79,1-1.6,1.97-2.41,2.95l-1.37,1.67c-1.26,1.53-2.68,2.52-4.33,3.05
			c-1.4,0.46-2.83,0.27-4.5-0.6c-1.91-1-3.15-2.7-4.45-4.65c-0.42-0.64-0.85-1.28-1.28-1.91l-1.7-2.52v-8.06L1048.61,415.23z
			 M1048.19,265.79c1.48,1.37,2.94,2.83,4.36,4.25l0.21,0.21c0.9,0.91,1.77,1.89,2.61,2.84c1.12,1.26,2.28,2.57,3.55,3.75
			c2.72,2.52,5.3,3.69,8.09,3.69c0.01,0,0.03,0,0.04,0c1.82-0.01,3.56-0.14,5.64-0.32c2.59-0.24,5.17,0.12,7.74,1.02
			c0.86,0.3,1.71,0.64,2.56,0.97c1.29,0.52,2.64,1.04,4.01,1.44c2.74,0.81,5.58,0.84,8.33,0.86l0.71,0.01
			c0.07,0.01,0.14,0.01,0.22,0.01c4.27,0,8.06-1.28,12.57-2.96c0.84-0.32,1.67-0.64,2.5-0.97c1.46-0.58,2.96-1.17,4.48-1.67
			c2.92-0.98,5.46-0.28,7.72,2.18c1.22,1.31,2.25,2.85,3.38,5l0.35,0.67c1.28,2.48,2.61,5.05,4.06,7.5c0.53,0.9,1.22,1.68,1.9,2.44
			c0.33,0.37,0.66,0.74,0.97,1.12c1.78,2.2,4.18,3.52,6.55,4.84l0.61,0.33c2.07,1.14,4.03,2.22,5.64,3.85
			c1.2,1.2,1.85,2.66,2.03,4.44c0.18,1.89-0.12,3.72-0.44,5.65c-0.12,0.68-0.23,1.36-0.32,2.04c-0.37,2.77-0.66,6.4,0.39,9.94
			c0.84,2.87,1.85,5.61,2.73,7.92c0.37,0.98,0.79,1.94,1.22,2.89c0.53,1.22,1.09,2.48,1.51,3.74c0.62,1.88,0.34,3.65-0.84,5.24
			c-0.84,1.13-1.97,1.93-3.08,2.72c-1.69,1.22-3.62,2.13-5.49,2.99c-1.08,0.51-2.2,1.03-3.28,1.62c-1.8,0.97-3.56,2.14-5.23,3.45
			c-1.17,0.91-1.96,2.29-2.5,4.31c-0.88,3.32-1.71,6.65-2.53,9.98l-1.25,5.02c-0.71,2.87-1.44,5.74-2.1,8.62
			c-0.67,2.9-1.26,5.87-1.82,8.75l-0.1,0.52c-0.9,4.55-2.04,8.66-3.47,12.56c-0.92,2.51-2.16,4.97-3.34,7.27
			c-0.86,1.67-1.9,3.38-3.36,5.56c-0.7,1.03-1.57,2.09-2.67,3.23c-0.97,1-2.02,1.33-3.17,1.11c-0.32-0.08-0.72-0.17-0.88-0.31
			c-1.04-0.97-2.02-2.02-2.91-3c-0.82-0.9-1.62-1.8-2.43-2.71c-0.53-0.61-1.08-1.22-1.62-1.82c-0.4-0.44-0.79-0.88-1.18-1.33
			c-0.88-1-1.78-2.05-2.76-2.99c-2.05-2-4.57-3.98-8.91-1.92c-1.27,0.62-2.45,1.42-3.61,2.23c-0.73,0.51-1.47,1.14-2.34,1.96
			c-0.55,0.52-1.08,1.08-1.59,1.64l-0.52,0.57c-0.26,0.26-0.52,0.53-0.78,0.79c-0.57,0.58-1.17,1.18-1.69,1.84
			c-1.08,1.35-2.47,3.14-3.73,5.03c-0.76,1.14-1.46,2.34-2.14,3.5c-0.39,0.68-0.79,1.35-1.19,2.02c-0.42,0.68-0.85,1.35-1.28,2.03
			c-0.55,0.86-1.11,1.73-1.64,2.61c-1.38,2.33-3.08,4.4-5.04,6.17c-2.5,2.27-4.63,2.93-6.93,2.14c-1.04-0.35-2.13-1.02-3.44-2.07
			c-1.69-1.37-2.96-3.17-4.08-4.9l-1.12-1.76v-7.51l0,0.01c0.55,0.95,1.21,2.04,1.98,2.99l0.52,0.66c1.06,1.33,2.14,2.71,3.81,3.65
			c1.09,0.62,2.5,1.26,4.16,1.26c0.48,0,0.98-0.05,1.51-0.17c3.43-0.82,5.45-3.34,7.39-5.79l0.44-0.55c0.72-0.9,1.33-1.89,1.93-2.85
			c0.3-0.47,0.59-0.95,0.89-1.4l0.63-0.94c0.66-0.99,1.32-1.98,2.01-2.94l0.65-0.91c0.9-1.27,1.83-2.58,2.87-3.71
			c1.26-1.38,2.69-2.7,4.06-3.96l1.11-1.03c0.37-0.35,0.76-0.67,1.15-0.99c0.49-0.41,0.98-0.82,1.43-1.26
			c1.62-1.56,3.25-2.75,4.98-3.65l0.63-0.34c0.99-0.53,2.02-1.09,3.06-1.37c1.43-0.39,3-0.59,4.67-0.59c0.03,0,0.06,0,0.09,0
			c2.3,0,3.93,0.53,5.13,1.66c1.02,0.97,1.98,2.05,2.91,3.1c0.39,0.44,0.79,0.88,1.16,1.29l0.08,0.16c0.47,0.77,1.38,1.4,2.38,1.64
			c0.82,0.21,1.61,0.1,2.22-0.27c1.2-0.74,2.4-1.59,3.01-2.74c1.48-2.78,2.59-5.31,3.38-7.73c0.89-2.73,1.54-5.56,2.18-8.31
			l0.35-1.53c1.29-5.56,2.32-10.17,3.23-14.5c0.79-3.82,1.53-7.65,2.27-11.48l0.63-3.26c0.33-1.74,0.73-3.41,1.94-4.73
			c1.17-1.28,2.64-2.12,4.06-2.83l2.2-1.12c1.57-0.79,3.14-1.59,4.74-2.36c2.12-1.02,4.52-2.38,6.2-4.64
			c0.57-0.76,0.97-1.59,1.17-2.4c0.41-1.67,0.34-3.4-0.23-5.15c-0.45-1.4-0.93-2.79-1.4-4.18c-0.4-1.16-0.8-2.33-1.19-3.49
			c-0.42-1.26-0.82-2.52-1.22-3.77c-0.57-1.81-1.15-3.61-1.77-5.4c-1.04-2.98-3.13-5.18-6.21-6.53c-1.2-0.53-2.44-0.98-3.64-1.42
			c-1.19-0.43-2.41-0.88-3.57-1.39c-1.06-0.47-1.95-1.12-2.43-1.79c-1.38-1.95-2.17-4.28-2.94-6.55l-0.12-0.35
			c-0.19-0.55-0.37-1.1-0.55-1.66c-0.85-2.62-1.73-5.33-3.56-7.67c-1.47-1.9-3.26-2.86-5.46-2.94c-3.03-0.14-5.97,0.56-8.81,1.22
			c-0.99,0.23-1.99,0.46-2.99,0.66c-3.02,0.6-5.71,1.07-8.47,0.7c-1.6-0.2-3.21-0.71-4.77-1.2l-0.57-0.18
			c-0.64-0.2-1.26-0.48-1.91-0.77c-0.55-0.25-1.11-0.5-1.67-0.7c-0.5-0.18-1-0.38-1.49-0.58c-1.44-0.57-2.92-1.17-4.46-1.35
			c-2.61-0.28-5.29-0.04-7.66,0.17c-3.61,0.33-6.05-0.24-7.95-1.89c-1.87-1.62-3.57-3.54-5.32-5.52c-0.68-0.77-1.32-1.61-1.95-2.43
			c-0.78-1.02-1.58-2.08-2.49-3.03c-1.15-1.22-2.29-2.35-3.39-3.37l-1.01-0.95v-7.52L1048.19,265.79z M1183.23,365.32l1.3-0.79
			l-0.32,1.49c-0.28,1.31-0.57,2.62-0.9,3.92l-0.05,0.19l-0.15,0.14c-0.84,0.76-1.6,1.59-2.25,2.47c-1.24,1.68-2.25,3.54-3.22,5.33
			c-0.29,0.55-0.59,1.09-0.9,1.64c-2.34,4.23-5.32,8.09-9.09,11.82c-1.09,1.09-2.16,2.18-3.11,3.32c-1.39,1.67-2.99,3.64-4.4,5.65
			c-0.77,1.09-1.46,2.3-2.12,3.46c-0.29,0.5-0.57,1-0.87,1.5l-0.61,0.99c-0.41,0.68-0.83,1.35-1.21,2.05l-0.12,0.23
			c-0.76,1.42-1.55,2.88-2.19,4.37c-0.92,2.15-1.6,3.96-2.13,5.69c-0.8,2.56-1.71,5.47-2.32,8.33c-0.48,2.24-0.91,4.49-1.35,6.74
			l-0.19,1.02l-0.14,0.14c-0.95,0.96-1.91,1.91-2.9,2.83l-1.54,1.46l0.44-2.07c0.17-0.82,0.35-1.64,0.53-2.45
			c0.31-1.38,0.59-2.78,0.86-4.17c0.29-1.47,0.58-2.93,0.91-4.39c0.89-3.95,1.89-8.16,3.5-12.23l0.48-1.24
			c0.83-2.12,1.69-4.32,2.65-6.43c0.6-1.33,1.33-2.6,2.03-3.83c0.25-0.44,0.5-0.88,0.75-1.33l0.83-1.49
			c0.84-1.51,1.71-3.07,2.63-4.57c0.98-1.61,2.09-3.27,3.49-5.21c1.22-1.67,2.46-3.32,3.71-4.97c0.65-0.85,1.29-1.71,1.94-2.56
			c1.29-1.71,2.56-3.43,3.82-5.15c0.19-0.26,0.35-0.54,0.52-0.82c0.23-0.38,0.46-0.77,0.73-1.11c0.28-0.37,0.57-0.75,0.85-1.13
			c0.87-1.17,1.76-2.38,2.84-3.41c1.46-1.4,3.14-2.6,4.76-3.76l0.33-0.24C1181.79,366.23,1182.5,365.77,1183.23,365.32z"/>
	</defs>
	<use xlink:href="#SVGID_1_"  style="overflow:visible;fill:#FFFFFF;"/>
	<clipPath id="SVGID_2_">
		<use xlink:href="#SVGID_1_"  style="overflow:visible;"/>
	</clipPath>
</g>
</svg>
